<?xml version="1.0" encoding="UTF-8" standalone="no"?><!DOCTYPE svg PUBLIC "-//W3C//DTD SVG 1.1//EN" "http://www.w3.org/Graphics/SVG/1.1/DTD/svg11.dtd"><svg width="100%" height="100%" viewBox="0 0 256 256" version="1.1" xmlns="http://www.w3.org/2000/svg" xmlns:xlink="http://www.w3.org/1999/xlink" xml:space="preserve" xmlns:serif="http://www.serif.com/" style="fill-rule:evenodd;clip-rule:evenodd;stroke-linejoin:round;stroke-miterlimit:2;"><g id="API"><circle cx="208" cy="208" r="8" style="fill:#087ccd;"/><circle cx="232" cy="208" r="8" style="fill:#087ccd;"/><path d="M192,208c0,-4.415 -3.585,-8 -8,-8l-16,0l0,16l16,0c4.415,0 8,-3.585 8,-8Z" style="fill:#087ccd;"/><path d="M136,176l0,16l16,0l0,32l-16,0l0,16l32,-0l0,-64l-32,0Z" style="fill:#087ccd;"/></g><g id="Adapter"><rect x="104" y="192" width="48" height="32" style="fill:#5cbf14;"/><rect x="120" y="56" width="16" height="136" style="fill:#5cbf14;"/><path d="M144,32c0,-4.415 3.585,-8 8,-8c4.415,-0 8,3.585 8,8c0,17.661 -14.339,32 -32,32c-17.661,-0 -32,-14.339 -32,-32c0,-4.415 3.585,-8 8,-8c4.415,-0 8,3.585 8,8c0,8.831 7.169,16 16,16c8.831,-0 16,-7.169 16,-16Z" style="fill:#5cbf14;"/></g><g id="Client"><circle cx="128" cy="32" r="16" style="fill:#087ccd;"/><circle cx="48" cy="32" r="8" style="fill:#087ccd;"/><circle cx="24" cy="32" r="8" style="fill:#087ccd;"/><path d="M120,24l-48,0c-4.415,0 -8,3.585 -8,8c-0,4.415 3.585,8 8,8l48,0l-0,-16Z" style="fill:#087ccd;"/></g></svg>